<?xml version="1.0" encoding="utf-8"?>
<!-- Generator: Adobe Illustrator 23.0.1, SVG Export Plug-In . SVG Version: 6.00 Build 0)  -->
<svg version="1.1" id="Layer_1" xmlns="http://www.w3.org/2000/svg" xmlns:xlink="http://www.w3.org/1999/xlink" x="0px" y="0px"
	 viewBox="0 0 190 36.18" style="enable-background:new 0 0 190 36.18;" xml:space="preserve">
<style type="text/css">
	.st0{fill:#003245;}
	.st1{fill:#00FF98;}
</style>
<g>
	<g>
		<polygon class="st0" points="50.97,31.62 33.98,10.13 3.63,10.05 3.63,9.76 34.12,9.84 34.16,9.9 50.96,31.15 68.21,8.28 
			68.33,8.36 92.39,26.25 121.11,5.91 121.17,5.92 154.48,9.46 184.33,1.09 184.42,1.37 154.51,9.76 154.47,9.75 121.19,6.21 
			92.39,26.61 68.27,8.68 		"/>
	</g>
	<g>
		<polygon class="st0" points="109.14,15.22 95.93,5.17 121.19,4.05 121.2,4.34 96.69,5.43 109.32,15 		"/>
	</g>
	<g>
		<polygon class="st0" points="55.07,18.17 55.04,18.15 36.39,8.85 36.52,8.59 55.13,17.88 80.29,16.85 93.29,6.06 93.48,6.29 
			80.4,17.14 		"/>
	</g>
	<g>
		<circle class="st0" cx="108.86" cy="15.11" r="0.94"/>
	</g>
	<g>
		<g>
			<g>
				<circle class="st0" cx="80.08" cy="16.89" r="0.94"/>
			</g>
		</g>
		<g>
			<g>
				<path class="st0" d="M80.08,18.66c-0.98,0-1.78-0.8-1.78-1.78c0-0.98,0.8-1.78,1.78-1.78c0.98,0,1.78,0.8,1.78,1.78
					C81.85,17.87,81.06,18.66,80.08,18.66z M80.08,15.26c-0.9,0-1.63,0.73-1.63,1.63c0,0.9,0.73,1.63,1.63,1.63
					c0.9,0,1.63-0.73,1.63-1.63C81.71,15.99,80.98,15.26,80.08,15.26z"/>
			</g>
		</g>
	</g>
	<g>
		<g>
			<g>
				<circle class="st0" cx="55.09" cy="17.82" r="0.94"/>
			</g>
		</g>
		<g>
			<g>
				<path class="st0" d="M55.09,19.6c-0.98,0-1.78-0.8-1.78-1.78c0-0.98,0.8-1.78,1.78-1.78c0.98,0,1.78,0.8,1.78,1.78
					C56.87,18.8,56.07,19.6,55.09,19.6z M55.09,16.19c-0.9,0-1.63,0.73-1.63,1.63c0,0.9,0.73,1.63,1.63,1.63
					c0.9,0,1.63-0.73,1.63-1.63C56.72,16.92,55.99,16.19,55.09,16.19z"/>
			</g>
		</g>
	</g>
	<path class="st0" d="M2.98,10.82c-0.65-0.21-1.19-0.54-1.62-0.98C0.89,9.36,0.55,8.78,0.33,8.09C0.11,7.39,0,6.57,0,5.63
		c0-1.75,0.44-3.12,1.32-4.11c0.88-0.99,2.25-1.48,4.09-1.48c0.48,0,1,0.05,1.55,0.14c0.56,0.09,1.01,0.21,1.37,0.34L8.01,2.3
		c-0.93-0.25-1.73-0.37-2.4-0.37c-1.12,0-1.9,0.31-2.32,0.94c-0.43,0.62-0.64,1.53-0.64,2.7c0,1.37,0.27,2.35,0.8,2.92
		C3.7,8.75,4.02,8.95,4.4,9.07c0.38,0.12,0.88,0.18,1.5,0.18c0.27,0,0.6-0.02,0.99-0.06c0.39-0.04,0.74-0.09,1.07-0.16l0.26,1.78
		c-0.34,0.09-0.78,0.17-1.32,0.23c-0.54,0.06-1.04,0.09-1.5,0.09C4.44,11.14,3.63,11.03,2.98,10.82z"/>
	<path class="st0" d="M122.55,10.82c-0.65-0.21-1.19-0.54-1.62-0.98c-0.47-0.48-0.81-1.06-1.03-1.76c-0.22-0.69-0.33-1.51-0.33-2.46
		c0-1.75,0.44-3.12,1.32-4.11c0.88-0.99,2.25-1.48,4.09-1.48c0.48,0,1,0.05,1.55,0.14c0.56,0.09,1.01,0.21,1.37,0.34l-0.33,1.78
		c-0.93-0.25-1.73-0.37-2.4-0.37c-1.12,0-1.9,0.31-2.32,0.94c-0.43,0.62-0.64,1.53-0.64,2.7c0,1.37,0.27,2.35,0.8,2.92
		c0.25,0.27,0.57,0.47,0.95,0.59c0.38,0.12,0.88,0.18,1.5,0.18c0.27,0,0.6-0.02,0.99-0.06c0.39-0.04,0.74-0.09,1.07-0.16l0.26,1.78
		c-0.34,0.09-0.78,0.17-1.32,0.23c-0.54,0.06-1.04,0.09-1.5,0.09C124.01,11.14,123.2,11.03,122.55,10.82z"/>
	<path class="st0" d="M30.68,9.71c-0.8-0.93-1.2-2.31-1.2-4.14c0-1.83,0.4-3.21,1.21-4.15c0.81-0.94,2.05-1.4,3.72-1.4
		c1.67,0,2.91,0.47,3.72,1.4c0.81,0.94,1.21,2.32,1.21,4.15c0,1.83-0.4,3.21-1.2,4.14c-0.8,0.93-2.04,1.4-3.72,1.4
		C32.72,11.1,31.48,10.64,30.68,9.71z M36.17,8.35c0.35-0.57,0.53-1.5,0.53-2.78c0-1.29-0.18-2.22-0.54-2.79
		C35.8,2.2,35.22,1.91,34.4,1.91c-0.81,0-1.4,0.29-1.76,0.86c-0.36,0.57-0.54,1.5-0.54,2.79c0,1.29,0.18,2.22,0.53,2.78
		c0.35,0.57,0.94,0.85,1.76,0.85C35.23,9.2,35.82,8.92,36.17,8.35z"/>
	<path class="st0" d="M60.46,0.03h1.86l5.25,7.1v-7.1h2.22v11.08h-2.03l-5.09-6.72v6.72h-2.22V0.03z"/>
	<path class="st0" d="M90.89,0h7.49l-0.19,1.84h-4.76v2.7h3.81v1.9h-3.81v2.85h5.04v1.84h-7.57V0z"/>
	<path class="st0" d="M152.36,1.86h-3.43V0.03h9.51l-0.19,1.83h-3.35v9.25h-2.53V1.86z"/>
	<path class="st0" d="M183.21,0.01H186l4,11.12h-2.71l-0.92-2.8h-3.6l-0.86,2.8h-2.41L183.21,0.01z M185.76,6.5l-1.22-3.71h-0.03
		l-1.15,3.71H185.76z"/>
	<g>
		<g>
			<polygon class="st1" points="125.59,36.08 125.55,36.07 92.38,26.58 63.24,34.35 63.21,34.34 31.54,27.28 1.49,34.58 1.42,34.3 
				31.53,26.98 31.56,26.98 63.24,34.05 92.39,26.28 92.43,26.29 125.59,35.77 150.21,27.84 150.3,28.12 			"/>
		</g>
		<g>
			<g>
				<g>
					<path class="st1" d="M107.73,32.45c-0.93,0-1.68-0.75-1.68-1.68c0-0.93,0.75-1.68,1.68-1.68s1.68,0.75,1.68,1.68
						C109.41,31.69,108.66,32.45,107.73,32.45z M107.73,29.24c-0.85,0-1.53,0.69-1.53,1.53c0,0.85,0.69,1.53,1.53,1.53
						s1.53-0.69,1.53-1.53C109.27,29.92,108.58,29.24,107.73,29.24z"/>
				</g>
				<g>
					<path class="st1" d="M107.73,31.9c-0.29,0-0.58-0.11-0.8-0.33c-0.44-0.44-0.44-1.15,0-1.59c0.44-0.44,1.15-0.44,1.59,0
						c0.21,0.21,0.33,0.5,0.33,0.8c0,0.3-0.12,0.58-0.33,0.8l0,0C108.31,31.79,108.02,31.9,107.73,31.9z M107.73,29.79
						c-0.26,0-0.51,0.1-0.69,0.29c-0.38,0.38-0.38,1.01,0,1.39c0.19,0.19,0.43,0.29,0.69,0.29s0.51-0.1,0.69-0.29
						c0.19-0.19,0.29-0.43,0.29-0.69c0-0.26-0.1-0.51-0.29-0.69C108.24,29.89,108,29.79,107.73,29.79z"/>
				</g>
			</g>
			<g>
				<path class="st1" d="M21.53,31.28c-0.96,0-1.74-0.78-1.74-1.74s0.78-1.74,1.74-1.74s1.74,0.78,1.74,1.74
					S22.49,31.28,21.53,31.28z M21.53,27.94c-0.88,0-1.6,0.72-1.6,1.6c0,0.88,0.72,1.6,1.6,1.6s1.6-0.72,1.6-1.6
					C23.12,28.66,22.41,27.94,21.53,27.94z"/>
			</g>
			<path class="st1" d="M148.83,34.8c-0.8-0.93-1.2-2.31-1.2-4.14c0-1.83,0.4-3.21,1.21-4.15c0.81-0.94,2.05-1.4,3.72-1.4
				c1.67,0,2.91,0.47,3.72,1.4c0.81,0.94,1.21,2.32,1.21,4.15c0,1.83-0.4,3.21-1.2,4.14c-0.8,0.93-2.04,1.4-3.72,1.4
				C150.87,36.2,149.63,35.73,148.83,34.8z M154.32,33.44c0.35-0.57,0.53-1.5,0.53-2.78c0-1.29-0.18-2.22-0.54-2.79
				c-0.36-0.57-0.94-0.86-1.76-0.86s-1.4,0.29-1.76,0.86c-0.36,0.57-0.54,1.5-0.54,2.79c0,1.29,0.18,2.22,0.53,2.78
				c0.35,0.57,0.94,0.85,1.76,0.85C153.38,34.29,153.96,34.01,154.32,33.44z"/>
			<path class="st1" d="M0,25.11h7.49l-0.19,1.83H2.53v2.69h3.81v1.9H2.53v2.84h5.04v1.83H0V25.11z"/>
			<path class="st1" d="M118.91,25.11h7.49l-0.19,1.83h-4.76v2.69h3.81v1.9h-3.81v2.84h5.04v1.83h-7.57V25.11z"/>
			<path class="st1" d="M28.72,25.11h1.99l3.5,6.19l3.61-6.19h1.94v11.08h-2.32v-6.38l-2.3,3.86h-1.94l-2.37-3.92v6.45h-2.12V25.11z
				"/>
			<path class="st1" d="M60.92,25.1h3.81c0.89,0,1.61,0.07,2.18,0.21c0.57,0.14,1.02,0.37,1.37,0.7c0.59,0.55,0.89,1.42,0.89,2.59
				c0,1.18-0.28,2.07-0.83,2.69c-0.32,0.37-0.74,0.64-1.25,0.81c-0.51,0.17-1.13,0.26-1.86,0.26h-1.78v3.82h-2.53V25.1z
				 M64.69,30.46c0.4,0,0.7-0.03,0.92-0.09c0.21-0.06,0.4-0.17,0.56-0.33c0.29-0.29,0.44-0.76,0.44-1.41c0-0.6-0.14-1.04-0.42-1.31
				c-0.15-0.14-0.35-0.24-0.6-0.3c-0.25-0.06-0.57-0.09-0.96-0.09h-1.18v3.53H64.69z"/>
			<path class="st1" d="M90.32,25.12h2.53v9.23h4.91v1.83h-7.44V25.12z"/>
		</g>
	</g>
	<g>
		<g>
			<g>
				<circle class="st0" cx="50.97" cy="31.39" r="0.94"/>
			</g>
		</g>
		<g>
			<g>
				<path class="st0" d="M50.97,33.16c-0.98,0-1.78-0.8-1.78-1.78c0-0.98,0.8-1.78,1.78-1.78c0.98,0,1.78,0.8,1.78,1.78
					C52.74,32.37,51.94,33.16,50.97,33.16z M50.97,29.76c-0.9,0-1.63,0.73-1.63,1.63c0,0.9,0.73,1.63,1.63,1.63
					c0.9,0,1.63-0.73,1.63-1.63C52.6,30.49,51.86,29.76,50.97,29.76z"/>
			</g>
		</g>
	</g>
</g>
</svg>
